<mxfile host="app.diagrams.net" modified="2022-06-17T10:13:26.716Z" agent="5.0 (Windows NT 10.0; Win64; x64) AppleWebKit/537.36 (KHTML, like Gecko) Chrome/102.0.0.0 Safari/537.36" etag="WVPDD--jvTOPvZ_whq6_" version="20.0.1" type="github">
  <diagram id="C5RBs43oDa-KdzZeNtuy" name="Page-1">
    <mxGraphModel dx="1422" dy="706" grid="1" gridSize="10" guides="1" tooltips="1" connect="1" arrows="1" fold="1" page="1" pageScale="1" pageWidth="900" pageHeight="1600" math="0" shadow="0">
      <root>
        <mxCell id="WIyWlLk6GJQsqaUBKTNV-0" />
        <mxCell id="WIyWlLk6GJQsqaUBKTNV-1" parent="WIyWlLk6GJQsqaUBKTNV-0" />
        <mxCell id="N8sSoGPnQlkXMeaHY1hQ-3" style="edgeStyle=orthogonalEdgeStyle;rounded=0;orthogonalLoop=1;jettySize=auto;html=1;entryX=0.5;entryY=0;entryDx=0;entryDy=0;" edge="1" parent="WIyWlLk6GJQsqaUBKTNV-1" source="N8sSoGPnQlkXMeaHY1hQ-0" target="N8sSoGPnQlkXMeaHY1hQ-1">
          <mxGeometry relative="1" as="geometry" />
        </mxCell>
        <mxCell id="N8sSoGPnQlkXMeaHY1hQ-0" value="全额退款" style="rounded=0;whiteSpace=wrap;html=1;" vertex="1" parent="WIyWlLk6GJQsqaUBKTNV-1">
          <mxGeometry x="70" y="80" width="120" height="60" as="geometry" />
        </mxCell>
        <mxCell id="N8sSoGPnQlkXMeaHY1hQ-5" style="edgeStyle=orthogonalEdgeStyle;rounded=0;orthogonalLoop=1;jettySize=auto;html=1;" edge="1" parent="WIyWlLk6GJQsqaUBKTNV-1" source="N8sSoGPnQlkXMeaHY1hQ-1" target="N8sSoGPnQlkXMeaHY1hQ-4">
          <mxGeometry relative="1" as="geometry" />
        </mxCell>
        <mxCell id="N8sSoGPnQlkXMeaHY1hQ-1" value="查询订单信息&lt;br&gt;wsc_order_info&lt;br&gt;判断是否可以退款" style="rounded=0;whiteSpace=wrap;html=1;" vertex="1" parent="WIyWlLk6GJQsqaUBKTNV-1">
          <mxGeometry x="70" y="250" width="120" height="60" as="geometry" />
        </mxCell>
        <mxCell id="N8sSoGPnQlkXMeaHY1hQ-9" style="edgeStyle=orthogonalEdgeStyle;rounded=0;orthogonalLoop=1;jettySize=auto;html=1;" edge="1" parent="WIyWlLk6GJQsqaUBKTNV-1" source="N8sSoGPnQlkXMeaHY1hQ-4" target="N8sSoGPnQlkXMeaHY1hQ-8">
          <mxGeometry relative="1" as="geometry" />
        </mxCell>
        <mxCell id="N8sSoGPnQlkXMeaHY1hQ-4" value="根据支付方式判断是用户支付和余额支付" style="rounded=0;whiteSpace=wrap;html=1;" vertex="1" parent="WIyWlLk6GJQsqaUBKTNV-1">
          <mxGeometry x="70" y="420" width="120" height="60" as="geometry" />
        </mxCell>
        <mxCell id="N8sSoGPnQlkXMeaHY1hQ-11" style="edgeStyle=orthogonalEdgeStyle;rounded=0;orthogonalLoop=1;jettySize=auto;html=1;entryX=0;entryY=0.5;entryDx=0;entryDy=0;" edge="1" parent="WIyWlLk6GJQsqaUBKTNV-1" source="N8sSoGPnQlkXMeaHY1hQ-8" target="N8sSoGPnQlkXMeaHY1hQ-10">
          <mxGeometry relative="1" as="geometry" />
        </mxCell>
        <mxCell id="N8sSoGPnQlkXMeaHY1hQ-16" style="edgeStyle=orthogonalEdgeStyle;rounded=0;orthogonalLoop=1;jettySize=auto;html=1;" edge="1" parent="WIyWlLk6GJQsqaUBKTNV-1" source="N8sSoGPnQlkXMeaHY1hQ-8" target="N8sSoGPnQlkXMeaHY1hQ-15">
          <mxGeometry relative="1" as="geometry" />
        </mxCell>
        <mxCell id="N8sSoGPnQlkXMeaHY1hQ-8" value="用户支付方式是否为空" style="rhombus;whiteSpace=wrap;html=1;" vertex="1" parent="WIyWlLk6GJQsqaUBKTNV-1">
          <mxGeometry x="90" y="550" width="80" height="80" as="geometry" />
        </mxCell>
        <mxCell id="N8sSoGPnQlkXMeaHY1hQ-10" value="不支持退款返回" style="rounded=0;whiteSpace=wrap;html=1;" vertex="1" parent="WIyWlLk6GJQsqaUBKTNV-1">
          <mxGeometry x="230" y="560" width="120" height="60" as="geometry" />
        </mxCell>
        <mxCell id="N8sSoGPnQlkXMeaHY1hQ-12" value="Y" style="text;html=1;align=center;verticalAlign=middle;resizable=0;points=[];autosize=1;strokeColor=none;fillColor=none;" vertex="1" parent="WIyWlLk6GJQsqaUBKTNV-1">
          <mxGeometry x="180" y="560" width="20" height="20" as="geometry" />
        </mxCell>
        <mxCell id="N8sSoGPnQlkXMeaHY1hQ-18" style="edgeStyle=orthogonalEdgeStyle;rounded=0;orthogonalLoop=1;jettySize=auto;html=1;entryX=0;entryY=0.5;entryDx=0;entryDy=0;" edge="1" parent="WIyWlLk6GJQsqaUBKTNV-1" source="N8sSoGPnQlkXMeaHY1hQ-15" target="N8sSoGPnQlkXMeaHY1hQ-17">
          <mxGeometry relative="1" as="geometry" />
        </mxCell>
        <mxCell id="N8sSoGPnQlkXMeaHY1hQ-33" style="edgeStyle=orthogonalEdgeStyle;rounded=0;orthogonalLoop=1;jettySize=auto;html=1;entryX=0.5;entryY=0;entryDx=0;entryDy=0;" edge="1" parent="WIyWlLk6GJQsqaUBKTNV-1" source="N8sSoGPnQlkXMeaHY1hQ-15" target="N8sSoGPnQlkXMeaHY1hQ-32">
          <mxGeometry relative="1" as="geometry" />
        </mxCell>
        <mxCell id="N8sSoGPnQlkXMeaHY1hQ-15" value="是否微信支付" style="rhombus;whiteSpace=wrap;html=1;" vertex="1" parent="WIyWlLk6GJQsqaUBKTNV-1">
          <mxGeometry x="90" y="710" width="80" height="80" as="geometry" />
        </mxCell>
        <mxCell id="N8sSoGPnQlkXMeaHY1hQ-21" style="edgeStyle=orthogonalEdgeStyle;rounded=0;orthogonalLoop=1;jettySize=auto;html=1;entryX=0;entryY=0.5;entryDx=0;entryDy=0;" edge="1" parent="WIyWlLk6GJQsqaUBKTNV-1" source="N8sSoGPnQlkXMeaHY1hQ-17" target="N8sSoGPnQlkXMeaHY1hQ-20">
          <mxGeometry relative="1" as="geometry" />
        </mxCell>
        <mxCell id="N8sSoGPnQlkXMeaHY1hQ-17" value="如果商城号是10019&lt;br&gt;查询微信支付订单&lt;br&gt;wsc_wechat_order&lt;br&gt;订单appid设置成当前微信appid" style="rounded=0;whiteSpace=wrap;html=1;" vertex="1" parent="WIyWlLk6GJQsqaUBKTNV-1">
          <mxGeometry x="260" y="710" width="120" height="80" as="geometry" />
        </mxCell>
        <mxCell id="N8sSoGPnQlkXMeaHY1hQ-19" value="Y" style="text;html=1;align=center;verticalAlign=middle;resizable=0;points=[];autosize=1;strokeColor=none;fillColor=none;" vertex="1" parent="WIyWlLk6GJQsqaUBKTNV-1">
          <mxGeometry x="190" y="720" width="20" height="20" as="geometry" />
        </mxCell>
        <mxCell id="N8sSoGPnQlkXMeaHY1hQ-23" style="edgeStyle=orthogonalEdgeStyle;rounded=0;orthogonalLoop=1;jettySize=auto;html=1;entryX=0;entryY=0.5;entryDx=0;entryDy=0;" edge="1" parent="WIyWlLk6GJQsqaUBKTNV-1" source="N8sSoGPnQlkXMeaHY1hQ-20" target="N8sSoGPnQlkXMeaHY1hQ-22">
          <mxGeometry relative="1" as="geometry" />
        </mxCell>
        <mxCell id="N8sSoGPnQlkXMeaHY1hQ-20" value="查询微信支付信息" style="rounded=0;whiteSpace=wrap;html=1;" vertex="1" parent="WIyWlLk6GJQsqaUBKTNV-1">
          <mxGeometry x="460" y="720" width="120" height="60" as="geometry" />
        </mxCell>
        <mxCell id="N8sSoGPnQlkXMeaHY1hQ-26" style="edgeStyle=orthogonalEdgeStyle;rounded=0;orthogonalLoop=1;jettySize=auto;html=1;entryX=0.5;entryY=1;entryDx=0;entryDy=0;" edge="1" parent="WIyWlLk6GJQsqaUBKTNV-1" source="N8sSoGPnQlkXMeaHY1hQ-22" target="N8sSoGPnQlkXMeaHY1hQ-25">
          <mxGeometry relative="1" as="geometry" />
        </mxCell>
        <mxCell id="N8sSoGPnQlkXMeaHY1hQ-22" value="调用微信退款" style="rounded=0;whiteSpace=wrap;html=1;" vertex="1" parent="WIyWlLk6GJQsqaUBKTNV-1">
          <mxGeometry x="650" y="720" width="120" height="60" as="geometry" />
        </mxCell>
        <mxCell id="N8sSoGPnQlkXMeaHY1hQ-28" style="edgeStyle=orthogonalEdgeStyle;rounded=0;orthogonalLoop=1;jettySize=auto;html=1;" edge="1" parent="WIyWlLk6GJQsqaUBKTNV-1" source="N8sSoGPnQlkXMeaHY1hQ-25" target="N8sSoGPnQlkXMeaHY1hQ-27">
          <mxGeometry relative="1" as="geometry" />
        </mxCell>
        <mxCell id="N8sSoGPnQlkXMeaHY1hQ-30" style="edgeStyle=orthogonalEdgeStyle;rounded=0;orthogonalLoop=1;jettySize=auto;html=1;entryX=0.5;entryY=1;entryDx=0;entryDy=0;" edge="1" parent="WIyWlLk6GJQsqaUBKTNV-1" source="N8sSoGPnQlkXMeaHY1hQ-25" target="N8sSoGPnQlkXMeaHY1hQ-29">
          <mxGeometry relative="1" as="geometry" />
        </mxCell>
        <mxCell id="N8sSoGPnQlkXMeaHY1hQ-25" value="是否成功" style="rhombus;whiteSpace=wrap;html=1;" vertex="1" parent="WIyWlLk6GJQsqaUBKTNV-1">
          <mxGeometry x="670" y="600" width="80" height="80" as="geometry" />
        </mxCell>
        <mxCell id="N8sSoGPnQlkXMeaHY1hQ-27" value="失败返回" style="rounded=1;whiteSpace=wrap;html=1;" vertex="1" parent="WIyWlLk6GJQsqaUBKTNV-1">
          <mxGeometry x="480" y="610" width="120" height="60" as="geometry" />
        </mxCell>
        <mxCell id="N8sSoGPnQlkXMeaHY1hQ-29" value="如果渠道是水滴&lt;br&gt;同步退款状态" style="rounded=0;whiteSpace=wrap;html=1;" vertex="1" parent="WIyWlLk6GJQsqaUBKTNV-1">
          <mxGeometry x="650" y="490" width="120" height="60" as="geometry" />
        </mxCell>
        <mxCell id="N8sSoGPnQlkXMeaHY1hQ-35" style="edgeStyle=orthogonalEdgeStyle;rounded=0;orthogonalLoop=1;jettySize=auto;html=1;" edge="1" parent="WIyWlLk6GJQsqaUBKTNV-1" source="N8sSoGPnQlkXMeaHY1hQ-32" target="N8sSoGPnQlkXMeaHY1hQ-34">
          <mxGeometry relative="1" as="geometry" />
        </mxCell>
        <mxCell id="N8sSoGPnQlkXMeaHY1hQ-37" style="edgeStyle=orthogonalEdgeStyle;rounded=0;orthogonalLoop=1;jettySize=auto;html=1;entryX=0.5;entryY=0;entryDx=0;entryDy=0;" edge="1" parent="WIyWlLk6GJQsqaUBKTNV-1" source="N8sSoGPnQlkXMeaHY1hQ-32" target="N8sSoGPnQlkXMeaHY1hQ-36">
          <mxGeometry relative="1" as="geometry" />
        </mxCell>
        <mxCell id="N8sSoGPnQlkXMeaHY1hQ-32" value="是否是药师卡支付" style="rhombus;whiteSpace=wrap;html=1;" vertex="1" parent="WIyWlLk6GJQsqaUBKTNV-1">
          <mxGeometry x="90" y="860" width="80" height="80" as="geometry" />
        </mxCell>
        <mxCell id="N8sSoGPnQlkXMeaHY1hQ-34" value="获取配置&lt;br&gt;如果网关预授权成功，确认金额为0的订单&lt;br&gt;如果是支付成功，调用退款接口" style="rounded=0;whiteSpace=wrap;html=1;" vertex="1" parent="WIyWlLk6GJQsqaUBKTNV-1">
          <mxGeometry x="260" y="840" width="190" height="120" as="geometry" />
        </mxCell>
        <mxCell id="N8sSoGPnQlkXMeaHY1hQ-39" style="edgeStyle=orthogonalEdgeStyle;rounded=0;orthogonalLoop=1;jettySize=auto;html=1;entryX=0;entryY=0.5;entryDx=0;entryDy=0;" edge="1" parent="WIyWlLk6GJQsqaUBKTNV-1" source="N8sSoGPnQlkXMeaHY1hQ-36" target="N8sSoGPnQlkXMeaHY1hQ-38">
          <mxGeometry relative="1" as="geometry" />
        </mxCell>
        <mxCell id="N8sSoGPnQlkXMeaHY1hQ-42" style="edgeStyle=orthogonalEdgeStyle;rounded=0;orthogonalLoop=1;jettySize=auto;html=1;entryX=0.5;entryY=0;entryDx=0;entryDy=0;" edge="1" parent="WIyWlLk6GJQsqaUBKTNV-1" source="N8sSoGPnQlkXMeaHY1hQ-36" target="N8sSoGPnQlkXMeaHY1hQ-40">
          <mxGeometry relative="1" as="geometry" />
        </mxCell>
        <mxCell id="N8sSoGPnQlkXMeaHY1hQ-36" value="新网关支付" style="rhombus;whiteSpace=wrap;html=1;" vertex="1" parent="WIyWlLk6GJQsqaUBKTNV-1">
          <mxGeometry x="90" y="980" width="80" height="80" as="geometry" />
        </mxCell>
        <mxCell id="N8sSoGPnQlkXMeaHY1hQ-38" value="获取配置&lt;br&gt;封装参数调用新网关退款" style="rounded=0;whiteSpace=wrap;html=1;" vertex="1" parent="WIyWlLk6GJQsqaUBKTNV-1">
          <mxGeometry x="260" y="990" width="120" height="60" as="geometry" />
        </mxCell>
        <mxCell id="N8sSoGPnQlkXMeaHY1hQ-44" style="edgeStyle=orthogonalEdgeStyle;rounded=0;orthogonalLoop=1;jettySize=auto;html=1;" edge="1" parent="WIyWlLk6GJQsqaUBKTNV-1" source="N8sSoGPnQlkXMeaHY1hQ-40" target="N8sSoGPnQlkXMeaHY1hQ-43">
          <mxGeometry relative="1" as="geometry" />
        </mxCell>
        <mxCell id="N8sSoGPnQlkXMeaHY1hQ-48" style="edgeStyle=orthogonalEdgeStyle;rounded=0;orthogonalLoop=1;jettySize=auto;html=1;entryX=0.5;entryY=0;entryDx=0;entryDy=0;" edge="1" parent="WIyWlLk6GJQsqaUBKTNV-1" source="N8sSoGPnQlkXMeaHY1hQ-40" target="N8sSoGPnQlkXMeaHY1hQ-47">
          <mxGeometry relative="1" as="geometry" />
        </mxCell>
        <mxCell id="N8sSoGPnQlkXMeaHY1hQ-40" value="是否是中智支付&lt;br&gt;" style="rhombus;whiteSpace=wrap;html=1;" vertex="1" parent="WIyWlLk6GJQsqaUBKTNV-1">
          <mxGeometry x="90" y="1120" width="80" height="80" as="geometry" />
        </mxCell>
        <mxCell id="N8sSoGPnQlkXMeaHY1hQ-43" value="获取配置&lt;br&gt;如果存在第三方订单号条用中智退款" style="rounded=0;whiteSpace=wrap;html=1;" vertex="1" parent="WIyWlLk6GJQsqaUBKTNV-1">
          <mxGeometry x="280" y="1130" width="120" height="60" as="geometry" />
        </mxCell>
        <mxCell id="N8sSoGPnQlkXMeaHY1hQ-52" style="edgeStyle=orthogonalEdgeStyle;rounded=0;orthogonalLoop=1;jettySize=auto;html=1;" edge="1" parent="WIyWlLk6GJQsqaUBKTNV-1" source="N8sSoGPnQlkXMeaHY1hQ-47" target="N8sSoGPnQlkXMeaHY1hQ-49">
          <mxGeometry relative="1" as="geometry" />
        </mxCell>
        <mxCell id="N8sSoGPnQlkXMeaHY1hQ-54" style="edgeStyle=orthogonalEdgeStyle;rounded=0;orthogonalLoop=1;jettySize=auto;html=1;" edge="1" parent="WIyWlLk6GJQsqaUBKTNV-1" source="N8sSoGPnQlkXMeaHY1hQ-47" target="N8sSoGPnQlkXMeaHY1hQ-53">
          <mxGeometry relative="1" as="geometry" />
        </mxCell>
        <mxCell id="N8sSoGPnQlkXMeaHY1hQ-47" value="其他支付" style="rhombus;whiteSpace=wrap;html=1;" vertex="1" parent="WIyWlLk6GJQsqaUBKTNV-1">
          <mxGeometry x="90" y="1240" width="80" height="80" as="geometry" />
        </mxCell>
        <mxCell id="N8sSoGPnQlkXMeaHY1hQ-49" value="其他支付方式不处理" style="rounded=0;whiteSpace=wrap;html=1;" vertex="1" parent="WIyWlLk6GJQsqaUBKTNV-1">
          <mxGeometry x="280" y="1250" width="120" height="60" as="geometry" />
        </mxCell>
        <mxCell id="N8sSoGPnQlkXMeaHY1hQ-56" style="edgeStyle=orthogonalEdgeStyle;rounded=0;orthogonalLoop=1;jettySize=auto;html=1;entryX=0;entryY=0.5;entryDx=0;entryDy=0;" edge="1" parent="WIyWlLk6GJQsqaUBKTNV-1" source="N8sSoGPnQlkXMeaHY1hQ-53" target="N8sSoGPnQlkXMeaHY1hQ-55">
          <mxGeometry relative="1" as="geometry" />
        </mxCell>
        <mxCell id="N8sSoGPnQlkXMeaHY1hQ-53" value="封装参数调用订单退款" style="rounded=0;whiteSpace=wrap;html=1;" vertex="1" parent="WIyWlLk6GJQsqaUBKTNV-1">
          <mxGeometry x="70" y="1390" width="120" height="60" as="geometry" />
        </mxCell>
        <mxCell id="N8sSoGPnQlkXMeaHY1hQ-55" value="service,refundOrder&lt;br&gt;单独写" style="rounded=0;whiteSpace=wrap;html=1;" vertex="1" parent="WIyWlLk6GJQsqaUBKTNV-1">
          <mxGeometry x="280" y="1390" width="120" height="60" as="geometry" />
        </mxCell>
      </root>
    </mxGraphModel>
  </diagram>
</mxfile>
